<?xml version="1.0" encoding="utf-8"?>
<!-- Generator: Adobe Illustrator 19.1.0, SVG Export Plug-In . SVG Version: 6.00 Build 0)  -->
<svg version="1.1" id="Layer_1" xmlns="http://www.w3.org/2000/svg" xmlns:xlink="http://www.w3.org/1999/xlink" x="0px" y="0px"
	 viewBox="0 0 134.3 117.8" enable-background="new 0 0 134.3 117.8" xml:space="preserve">
<g>
	<g>
		<polygon fill="#FFFFFF" points="54.4,90.1 12.8,110.9 67.2,2.2 121.5,110.9 79.9,90.1 67.2,115.6 		"/>
		<path d="M67.2,4.5l52.1,104.2l-38-19l-1.8-0.9l-0.9,1.8l-11.4,22.8L55.8,90.5l-0.9-1.8l-1.8,0.9l-38,19L67.2,4.5 M67.2,0
			L10.6,113.1L54,91.4l13.2,26.4l13.2-26.4l43.4,21.7L67.2,0L67.2,0z"/>
	</g>
	<g>
		<polygon stroke="#FFFFFF" stroke-width="2" stroke-linecap="round" stroke-linejoin="round" stroke-miterlimit="10" points="
			112.9,86 133.3,86 126.4,72.9 133.3,59.8 112.9,59.8 		"/>
		<polygon stroke="#FFFFFF" stroke-width="2" stroke-linecap="round" stroke-linejoin="round" stroke-miterlimit="10" points="
			21.4,86 1,86 7.9,72.9 1,59.8 21.4,59.8 		"/>
		
			<rect x="13.6" y="50.4" stroke="#FFFFFF" stroke-width="2" stroke-linecap="round" stroke-linejoin="round" stroke-miterlimit="10" width="107.1" height="26.2"/>
		
			<line stroke="#FFFFFF" stroke-width="2" stroke-linecap="round" stroke-linejoin="round" stroke-miterlimit="10" x1="13.7" y1="76.6" x2="21.5" y2="86"/>
		
			<line fill="none" stroke="#FFFFFF" stroke-width="2" stroke-linecap="round" stroke-linejoin="round" stroke-miterlimit="10" x1="113" y1="86" x2="120.8" y2="76.6"/>
	</g>
</g>
<g>
	<path fill="#FFFFFF" stroke="#FFFFFF" d="M36.7,70.5h-1.1L29.4,60v9.6h1.6c0.2,0,0.4,0,0.4,0.1c0.1,0.1,0.1,0.2,0.1,0.3
		c0,0.1,0,0.2-0.1,0.3c-0.1,0.1-0.2,0.1-0.4,0.1h-3.1c-0.2,0-0.4,0-0.4-0.1c-0.1-0.1-0.1-0.2-0.1-0.3c0-0.1,0-0.2,0.1-0.3
		c0.1-0.1,0.2-0.1,0.4-0.1h0.7v-10h-1.1c-0.2,0-0.3,0-0.4-0.1s-0.1-0.2-0.1-0.3c0-0.1,0-0.2,0.1-0.3s0.2-0.1,0.4-0.1h2.2l6.2,10.5
		v-9.7h-1.6c-0.2,0-0.3,0-0.4-0.1c-0.1-0.1-0.1-0.2-0.1-0.3c0-0.1,0-0.2,0.1-0.3c0.1-0.1,0.2-0.1,0.4-0.1h3.1c0.2,0,0.3,0,0.4,0.1
		s0.1,0.2,0.1,0.3c0,0.1,0,0.2-0.1,0.3s-0.2,0.1-0.4,0.1h-0.7V70.5z"/>
	<path fill="#FFFFFF" stroke="#FFFFFF" d="M55.1,64.7c0,1.1-0.2,2.2-0.7,3.1c-0.5,1-1.1,1.7-1.9,2.2c-0.8,0.5-1.7,0.8-2.6,0.8
		c-1.4,0-2.5-0.6-3.6-1.7s-1.5-2.6-1.5-4.4c0-1.8,0.5-3.3,1.5-4.4c1-1.1,2.2-1.7,3.6-1.7c0.9,0,1.8,0.3,2.6,0.8
		c0.8,0.5,1.4,1.3,1.9,2.2C54.9,62.5,55.1,63.6,55.1,64.7z M54.3,64.7c0-1.4-0.4-2.6-1.2-3.7c-0.8-1.1-1.8-1.6-3.1-1.6
		c-1.2,0-2.2,0.5-3,1.6c-0.8,1-1.3,2.3-1.3,3.8c0,1.6,0.4,2.8,1.3,3.8c0.9,1,1.9,1.5,3,1.5c1.3,0,2.3-0.5,3.1-1.6
		C53.9,67.3,54.3,66.1,54.3,64.7z"/>
	<path fill="#FFFFFF" stroke="#FFFFFF" d="M64.7,65.3v4.4h1.6c0.2,0,0.4,0,0.4,0.1c0.1,0.1,0.1,0.2,0.1,0.3c0,0.1,0,0.2-0.1,0.3
		s-0.2,0.1-0.4,0.1h-3.5c-0.2,0-0.3,0-0.4-0.1c-0.1-0.1-0.1-0.2-0.1-0.3c0-0.1,0-0.2,0.1-0.3c0.1-0.1,0.2-0.1,0.4-0.1h1.1v-10h-1.1
		c-0.2,0-0.3,0-0.4-0.1c-0.1-0.1-0.1-0.2-0.1-0.3c0-0.1,0-0.2,0.1-0.3c0.1-0.1,0.2-0.1,0.4-0.1h5.1c1,0,1.9,0.3,2.6,1
		c0.7,0.7,1.1,1.4,1.1,2.2c0,0.6-0.2,1.2-0.7,1.7c-0.4,0.5-1.2,1-2.2,1.3c0.6,0.4,1.1,0.9,1.5,1.4c0.4,0.5,1.1,1.6,2.1,3.2h0.6
		c0.2,0,0.3,0,0.4,0.1c0.1,0.1,0.1,0.2,0.1,0.3c0,0.1,0,0.2-0.1,0.3c-0.1,0.1-0.2,0.1-0.4,0.1h-1.1c-1-1.9-1.8-3.1-2.4-3.7
		c-0.6-0.6-1.2-1.1-2-1.5H64.7z M64.7,64.5H67c0.7,0,1.4-0.1,2-0.4c0.6-0.3,1-0.6,1.3-0.9c0.3-0.4,0.4-0.7,0.4-1.1
		c0-0.6-0.3-1.1-0.8-1.6c-0.6-0.5-1.2-0.8-2.1-0.8h-3.1V64.5z"/>
	<path fill="#FFFFFF" stroke="#FFFFFF" d="M85.2,59.7v10h2.2c0.2,0,0.3,0,0.4,0.1c0.1,0.1,0.1,0.2,0.1,0.3c0,0.1,0,0.2-0.1,0.3
		s-0.2,0.1-0.4,0.1h-5.2c-0.2,0-0.3,0-0.4-0.1s-0.1-0.2-0.1-0.3c0-0.1,0-0.2,0.1-0.3c0.1-0.1,0.2-0.1,0.4-0.1h2.2v-10h-3.4v2.9
		c0,0.2,0,0.4-0.1,0.4c-0.1,0.1-0.2,0.1-0.3,0.1c-0.1,0-0.2,0-0.3-0.1c-0.1-0.1-0.1-0.2-0.1-0.4v-3.8h9.4v3.8c0,0.2,0,0.4-0.1,0.4
		c-0.1,0.1-0.2,0.1-0.3,0.1c-0.1,0-0.2,0-0.3-0.1c-0.1-0.1-0.1-0.2-0.1-0.4v-2.9H85.2z"/>
	<path fill="#FFFFFF" stroke="#FFFFFF" d="M105.1,64.9h-5.6v4.8h1.1c0.2,0,0.3,0,0.4,0.1c0.1,0.1,0.1,0.2,0.1,0.3
		c0,0.1,0,0.2-0.1,0.3c-0.1,0.1-0.2,0.1-0.4,0.1h-2.9c-0.2,0-0.3,0-0.4-0.1s-0.1-0.2-0.1-0.3c0-0.1,0-0.2,0.1-0.3
		c0.1-0.1,0.2-0.1,0.4-0.1h1v-10h-0.5c-0.2,0-0.4,0-0.4-0.1s-0.1-0.2-0.1-0.3c0-0.1,0-0.2,0.1-0.3s0.2-0.1,0.4-0.1h2.5
		c0.2,0,0.3,0,0.4,0.1c0.1,0.1,0.1,0.2,0.1,0.3c0,0.1,0,0.2-0.1,0.3c-0.1,0.1-0.2,0.1-0.4,0.1h-1.1V64h5.6v-4.4H104
		c-0.2,0-0.3,0-0.4-0.1c-0.1-0.1-0.1-0.2-0.1-0.3c0-0.1,0-0.2,0.1-0.3c0.1-0.1,0.2-0.1,0.4-0.1h2.5c0.2,0,0.4,0,0.4,0.1
		s0.1,0.2,0.1,0.3c0,0.1,0,0.2-0.1,0.3s-0.2,0.1-0.4,0.1H106v10h1c0.2,0,0.3,0,0.4,0.1c0.1,0.1,0.1,0.2,0.1,0.3c0,0.1,0,0.2-0.1,0.3
		s-0.2,0.1-0.4,0.1H104c-0.2,0-0.3,0-0.4-0.1c-0.1-0.1-0.1-0.2-0.1-0.3c0-0.1,0-0.2,0.1-0.3c0.1-0.1,0.2-0.1,0.4-0.1h1.1V64.9z"/>
</g>
</svg>
