<?xml version="1.0" encoding="utf-8"?>
<!-- Generator: Adobe Illustrator 19.1.0, SVG Export Plug-In . SVG Version: 6.00 Build 0)  -->
<svg version="1.1" id="Layer_1" xmlns="http://www.w3.org/2000/svg" xmlns:xlink="http://www.w3.org/1999/xlink" x="0px" y="0px"
	 viewBox="0 0 134.3 117.8" enable-background="new 0 0 134.3 117.8" xml:space="preserve">
<g>
	<g>
		<polygon points="80.4,91.4 123.7,113.1 67.2,0 10.6,113.1 54,91.4 67.2,117.8 		"/>
		<g>
			
				<polygon fill="#FFFFFF" stroke="#000000" stroke-width="2" stroke-linecap="round" stroke-linejoin="round" stroke-miterlimit="10" points="
				112.9,86 133.3,86 126.4,72.9 133.3,59.8 112.9,59.8 			"/>
			
				<polygon fill="#FFFFFF" stroke="#000000" stroke-width="2" stroke-linecap="round" stroke-linejoin="round" stroke-miterlimit="10" points="
				21.4,86 1,86 7.9,72.9 1,59.8 21.4,59.8 			"/>
			
				<rect x="13.6" y="50.4" fill="#FFFFFF" stroke="#000000" stroke-width="2" stroke-linecap="round" stroke-linejoin="round" stroke-miterlimit="10" width="107.1" height="26.2"/>
			
				<line fill="none" stroke="#000000" stroke-width="2" stroke-linecap="round" stroke-linejoin="round" stroke-miterlimit="10" x1="13.8" y1="76.6" x2="21.5" y2="86"/>
		</g>
	</g>
	
		<line fill="#FFFFFF" stroke="#000000" stroke-width="2" stroke-linecap="round" stroke-linejoin="round" stroke-miterlimit="10" x1="112.9" y1="86" x2="120.7" y2="76.6"/>
</g>
<g>
	<path stroke="#000000" d="M36.7,69.3h-1.1l-6.2-10.5v9.6h1.6c0.2,0,0.4,0,0.4,0.1c0.1,0.1,0.1,0.2,0.1,0.3c0,0.1,0,0.2-0.1,0.3
		c-0.1,0.1-0.2,0.1-0.4,0.1h-3.1c-0.2,0-0.4,0-0.4-0.1c-0.1-0.1-0.1-0.2-0.1-0.3c0-0.1,0-0.2,0.1-0.3c0.1-0.1,0.2-0.1,0.4-0.1h0.7
		v-10h-1.1c-0.2,0-0.3,0-0.4-0.1s-0.1-0.2-0.1-0.3c0-0.1,0-0.2,0.1-0.3s0.2-0.1,0.4-0.1h2.2l6.2,10.5v-9.7h-1.6
		c-0.2,0-0.3,0-0.4-0.1c-0.1-0.1-0.1-0.2-0.1-0.3c0-0.1,0-0.2,0.1-0.3c0.1-0.1,0.2-0.1,0.4-0.1h3.1c0.2,0,0.3,0,0.4,0.1
		s0.1,0.2,0.1,0.3c0,0.1,0,0.2-0.1,0.3s-0.2,0.1-0.4,0.1h-0.7V69.3z"/>
	<path stroke="#000000" d="M55.1,63.5c0,1.1-0.2,2.2-0.7,3.1c-0.5,1-1.1,1.7-1.9,2.2c-0.8,0.5-1.7,0.8-2.6,0.8
		c-1.4,0-2.5-0.6-3.6-1.7s-1.5-2.6-1.5-4.4c0-1.8,0.5-3.3,1.5-4.4c1-1.1,2.2-1.7,3.6-1.7c0.9,0,1.8,0.3,2.6,0.8
		c0.8,0.5,1.4,1.3,1.9,2.2C54.9,61.3,55.1,62.3,55.1,63.5z M54.3,63.5c0-1.4-0.4-2.6-1.2-3.7c-0.8-1.1-1.8-1.6-3.1-1.6
		c-1.2,0-2.2,0.5-3,1.6c-0.8,1-1.3,2.3-1.3,3.8c0,1.6,0.4,2.8,1.3,3.8c0.9,1,1.9,1.5,3,1.5c1.3,0,2.3-0.5,3.1-1.6
		C53.9,66.1,54.3,64.9,54.3,63.5z"/>
	<path stroke="#000000" d="M64.7,64.1v4.4h1.6c0.2,0,0.4,0,0.4,0.1c0.1,0.1,0.1,0.2,0.1,0.3c0,0.1,0,0.2-0.1,0.3s-0.2,0.1-0.4,0.1
		h-3.5c-0.2,0-0.3,0-0.4-0.1c-0.1-0.1-0.1-0.2-0.1-0.3c0-0.1,0-0.2,0.1-0.3c0.1-0.1,0.2-0.1,0.4-0.1h1.1v-10h-1.1
		c-0.2,0-0.3,0-0.4-0.1c-0.1-0.1-0.1-0.2-0.1-0.3c0-0.1,0-0.2,0.1-0.3c0.1-0.1,0.2-0.1,0.4-0.1h5.1c1,0,1.9,0.3,2.6,1
		c0.7,0.7,1.1,1.4,1.1,2.2c0,0.6-0.2,1.2-0.7,1.7c-0.4,0.5-1.2,1-2.2,1.3c0.6,0.4,1.1,0.9,1.5,1.4c0.4,0.5,1.1,1.6,2.1,3.2h0.6
		c0.2,0,0.3,0,0.4,0.1c0.1,0.1,0.1,0.2,0.1,0.3c0,0.1,0,0.2-0.1,0.3c-0.1,0.1-0.2,0.1-0.4,0.1h-1.1c-1-1.9-1.8-3.1-2.4-3.7
		c-0.6-0.6-1.2-1.1-2-1.5H64.7z M64.7,63.2H67c0.7,0,1.4-0.1,2-0.4c0.6-0.3,1-0.6,1.3-0.9c0.3-0.4,0.4-0.7,0.4-1.1
		c0-0.6-0.3-1.1-0.8-1.6c-0.6-0.5-1.2-0.8-2.1-0.8h-3.1V63.2z"/>
	<path stroke="#000000" d="M85.2,58.4v10h2.2c0.2,0,0.3,0,0.4,0.1c0.1,0.1,0.1,0.2,0.1,0.3c0,0.1,0,0.2-0.1,0.3s-0.2,0.1-0.4,0.1
		h-5.2c-0.2,0-0.3,0-0.4-0.1s-0.1-0.2-0.1-0.3c0-0.1,0-0.2,0.1-0.3c0.1-0.1,0.2-0.1,0.4-0.1h2.2v-10h-3.4v2.9c0,0.2,0,0.4-0.1,0.4
		c-0.1,0.1-0.2,0.1-0.3,0.1c-0.1,0-0.2,0-0.3-0.1c-0.1-0.1-0.1-0.2-0.1-0.4v-3.8h9.4v3.8c0,0.2,0,0.4-0.1,0.4
		c-0.1,0.1-0.2,0.1-0.3,0.1c-0.1,0-0.2,0-0.3-0.1c-0.1-0.1-0.1-0.2-0.1-0.4v-2.9H85.2z"/>
	<path stroke="#000000" d="M105.1,63.6h-5.6v4.8h1.1c0.2,0,0.3,0,0.4,0.1c0.1,0.1,0.1,0.2,0.1,0.3c0,0.1,0,0.2-0.1,0.3
		c-0.1,0.1-0.2,0.1-0.4,0.1h-2.9c-0.2,0-0.3,0-0.4-0.1s-0.1-0.2-0.1-0.3c0-0.1,0-0.2,0.1-0.3c0.1-0.1,0.2-0.1,0.4-0.1h1v-10h-0.5
		c-0.2,0-0.4,0-0.4-0.1s-0.1-0.2-0.1-0.3c0-0.1,0-0.2,0.1-0.3s0.2-0.1,0.4-0.1h2.5c0.2,0,0.3,0,0.4,0.1c0.1,0.1,0.1,0.2,0.1,0.3
		c0,0.1,0,0.2-0.1,0.3c-0.1,0.1-0.2,0.1-0.4,0.1h-1.1v4.4h5.6v-4.4H104c-0.2,0-0.3,0-0.4-0.1c-0.1-0.1-0.1-0.2-0.1-0.3
		c0-0.1,0-0.2,0.1-0.3c0.1-0.1,0.2-0.1,0.4-0.1h2.5c0.2,0,0.4,0,0.4,0.1s0.1,0.2,0.1,0.3c0,0.1,0,0.2-0.1,0.3s-0.2,0.1-0.4,0.1H106
		v10h1c0.2,0,0.3,0,0.4,0.1c0.1,0.1,0.1,0.2,0.1,0.3c0,0.1,0,0.2-0.1,0.3s-0.2,0.1-0.4,0.1H104c-0.2,0-0.3,0-0.4-0.1
		c-0.1-0.1-0.1-0.2-0.1-0.3c0-0.1,0-0.2,0.1-0.3c0.1-0.1,0.2-0.1,0.4-0.1h1.1V63.6z"/>
</g>
</svg>
