<?xml version="1.0" encoding="utf-8"?>
<!-- Generator: Adobe Illustrator 19.1.0, SVG Export Plug-In . SVG Version: 6.00 Build 0)  -->
<svg version="1.1" id="Layer_1" xmlns="http://www.w3.org/2000/svg" xmlns:xlink="http://www.w3.org/1999/xlink" x="0px" y="0px"
	 viewBox="0 0 52.5 71.2" style="enable-background:new 0 0 52.5 71.2;" xml:space="preserve">
<style type="text/css">
	.st0{fill:#FFFFFF;}
	.st1{stroke:#FFFFFF;stroke-width:3;stroke-miterlimit:10;}
	.st2{fill:#FFFFFF;stroke:#000000;stroke-width:2;stroke-miterlimit:10;}
	.st3{fill:none;}
	.st4{display:none;}
	.st5{display:inline;fill:none;stroke:#000000;stroke-miterlimit:10;}
	.st6{fill:#EEF4F0;}
</style>
<g>
	<g>
		<polygon class="st0" points="26.2,57 2.2,68.9 14.8,43.9 2.4,50.1 26.3,2.2 50.2,50.1 37.5,43.7 50.1,68.9 		"/>
		<path d="M26.3,4.5L48,47.9l-7.4-3.7l-5.4-2.7l2.7,5.4l9.9,19.9L27.1,56.3l-0.9-0.4l-0.9,0.4L4.5,66.7L14.3,47l2.7-5.4l-5.4,2.7
			l-7,3.5L26.3,4.5 M26.3,0L0.1,52.3l12.4-6.2L0,71.2l26.2-13.1l26.2,13.1L39.7,45.9l12.8,6.4L26.3,0L26.3,0z"/>
	</g>
	<g>
		<path d="M19.2,21.2h4.2l5.5,8.1v-8.1h4.3v14.6H29l-5.5-8v8h-4.2V21.2z"/>
	</g>
</g>
</svg>
